<?xml version="1.0" encoding="utf-8"?>
<!-- Generator: Adobe Illustrator 16.0.0, SVG Export Plug-In . SVG Version: 6.00 Build 0)  -->
<!DOCTYPE svg PUBLIC "-//W3C//DTD SVG 1.1//EN" "http://www.w3.org/Graphics/SVG/1.1/DTD/svg11.dtd">
<svg version="1.1" class="lin_x5F_face" xmlns="http://www.w3.org/2000/svg" xmlns:xlink="http://www.w3.org/1999/xlink" x="0px"
	 y="0px" width="300px" height="420px" viewBox="0 0 300 420" style="enable-background:new 0 0 300 420;" xml:space="preserve">
<g class="face_1_ delay-1 time-2">
	<path style="fill:none;stroke:#231815;stroke-linecap:round;stroke-linejoin:round;stroke-miterlimit:10;" d="M261.25,152.89
		c0,0-0.5,18.75-0.25,24.25s3,23.75,0.75,35.25s-6,15.75-7.5,24.25s-8.5,21.75-12,26s-20.5,27-26,34.25s-25.5,21.5-49.5,5.5
		S94,262.14,91,237.39s-6-25.75-6-25.75s-18-10-22-24.25s-7.5-32,2.5-36.25s19.75,0.5,22.75,5.25s2.275,8.804-2.25,8
		c-6.688-1.188-7.011,6.883-12.438,6.938c-6.25,0.063-8.561,7.408-4.75,13.375c3.313,5.188,7.313,2.938,10.938,6.188
		c6.078,5.449,7.75,1.75,3.75-3s-4.5-8.25-1-9.5"/>
</g>
<g class="glesses time-3s">
	<path style="fill:none;stroke:#231815;stroke-linecap:round;stroke-linejoin:round;stroke-miterlimit:10;" d="M91.584,144.723
		c0,0,29.666,3,35.333,1.5s19.167-7.5,37-4.167s25,6.667,29.167,10c4.166,3.333,19.333,4.167,26.333,1s17.791-7.75,32.958-6.292
		c15.422,1.483,27.041,5.792,26.875,12.125s-2.5,23.834-11.166,31.667c-8.667,7.833-33,9.667-44.167,2.667s-15.833-16.833-15.5-20
		s1.833-7.667,1-9.5s-6.333-3.5-9.667-0.333c-1.625,1.544-3.333,11.5-8.833,18.333s-9.583,11.083-24.333,12.833
		c-8.441,1.002-26.667,0-33.5-9.667c-6.834-9.667-5-28.5-7.5-29.167s-32.834-1-33.667-1.667s-3-6.833,0.5-6.833
		s31.167,2.833,34.167,2.167s13-6,27.333-5.667s37.333,5.833,39.5,13.667s-5.06,8.148-7.333,13.167
		c-2.417,5.333,1.583,13.333-5.834,17.667c-4.271,2.496-18.916,7.333-32,3.333c-10.123-3.095-15.322-7.761-17.333-21.833
		c-0.833-5.833,0.167-14.667,0.167-14.667"/>
	<path style="fill:none;stroke:#231815;stroke-linecap:round;stroke-linejoin:round;stroke-miterlimit:10;" d="M217.875,160.14
		c2.014-4.252,14.375-11.375,25.625-11.375c17.75,0,27.125,4.25,30.25,9s-0.375,22.5-5.25,28.125s-13,10.375-29.5,9.25
		c-9.638-0.657-18.25-4.625-21.125-12.5S215.625,164.89,217.875,160.14z"/>
</g>
<g class="eyes delay-3">
	<path style="fill:none;stroke:#231815;stroke-linecap:round;stroke-linejoin:round;stroke-miterlimit:10;" d="M221.25,169.89
		c0,0,0.917-4.833,3.084-7.167c2.166-2.333,8.275-3.625,13.5-2.75c9.708,1.625,16.749,9.75,16.416,10.583s-1.875,1.167-3.916,1.208"
		/>
	<path style="fill:none;stroke:#231815;stroke-linecap:round;stroke-linejoin:round;stroke-miterlimit:10;" d="M176,163.39
		c0,0-1.375-4.875-5.875-7.375s-14.875-2.75-20-0.5s-8.875,4.188-8.875,5s3.125,1.5,3.125,1.5"/>
	<path style="fill:none;stroke:#231815;stroke-linecap:round;stroke-linejoin:round;stroke-miterlimit:10;" d="M167.764,158.168
		c-0.15-1.274-0.602-2.455-1.303-3.456c-3.631-0.84-8.314-0.967-12.17-0.337c-1.014,1.29-1.625,2.913-1.625,4.681
		c0,4.188,3.396,7.583,7.584,7.583c2.484,0,4.682-1.199,6.064-3.044"/>
	<path style="fill:none;stroke:#231815;stroke-linecap:round;stroke-linejoin:round;stroke-miterlimit:10;" d="M237.248,162.473
		c-0.217-1.004-0.643-1.93-1.251-2.715c-4.745-0.345-9.747,0.9-11.663,2.965c-0.131,0.141-0.258,0.292-0.379,0.45
		c-0.025,0.235-0.039,0.474-0.039,0.716c0,3.729,3.021,6.75,6.75,6.75c2.229,0,4.201-1.085,5.43-2.751"/>
</g>
<g class="hair-1 delay-1 time-3">
	<path class="body" style="fill:none;stroke:#231815;stroke-linecap:round;stroke-linejoin:round;stroke-miterlimit:10;" d="
		M125.417,103.723c3.61,2.747,8.761,3.941,12.789,6.103c6.425,3.447,13.352,5.939,20.313,8.111
		c7.299,2.276,16.502,3.964,24.207,3.786c0.544-2.984-7.859-6.195-10.586-6.004c2.405,0.011,5.033,1.914,7.123,3.002
		c3.231,1.684,6.274,2.49,9.682,3.577c4.687,1.495,9.555,3.39,14.146,5.183c4.188,1.636,8.358,3.406,12.559,5.12
		c2.763,1.127,7.188,4.26,10.03,3.738c-1.539-1.319-3.348-2.078-5.39-2.189c4.414,2.051,9.578,4.486,14.423,4.902
		c0.334-2.242-1.343-3.67-3.268-4.417c3.598,2.275,6.734,4.964,10.922,6.203c2.955,0.875,5.723,0.265,8.372,2.15
		c-1.065,0.047-2.208,0.174-3.286,0.028c6.131,1.559,11.127,8.301,17.986,8.329c-0.649-0.902-1.706-1.673-2.662-1.92
		c0.407,0.56,0.58,1.722,0.864,2.247c-1.397,0.275-2.872-0.158-4.071-0.613c2.35,2.869,5.258,5.95,7.485,8.539
		c1.171-0.272,2.45-0.267,3.694-0.209"/>
	<path style="fill:none;stroke:#231815;stroke-linecap:round;stroke-linejoin:round;stroke-miterlimit:10;" d="M58.084,121.39
		c-0.848,2.535-1.091,8-0.356,10.575c0.869,3.049,8.145,7.26,1.365,8.743c0.749,1.713,1.479,4.263,2.582,5.727
		c1.582,2.099,1.454,1.41,4.366,1.614c3.303,0.23,6.046,2.24,9.266,2.698c2.277,0.324,6.477-0.841,7.522,1.58
		c0.593,1.373,0.55,3.453,0.987,4.951c0.476,1.634,1.055,3.236,1.536,4.869c0.656,2.228,0.753,5.336,1.973,7.334
		c0.306-0.802,0.786-2.131,1.626-2.618c1.349,2.402,1.554,5.662,1.817,8.356c0.099,1.008,0.171,1.971,0.387,2.966
		c0.416,1.923,0.938,1.854,2.438,2.843c0.954-2.372,1.552-5.101,1.552-7.667c0-4.453-0.221-8.85-0.395-13.281
		c-0.28-7.172,5.342-17.934,12.267-20.942c3.373-1.466,9.299-0.097,11.484-3.396c2.049-3.091-0.219-8.257-0.035-11.672
		c-0.072,1.349,15.213,6.339,5.283-3.012"/>
</g>
<g class="hair-2 delay-1">
	<path style="fill:none;stroke:#231815;stroke-linecap:round;stroke-linejoin:round;stroke-miterlimit:10;" d="M206.75,16.39
		c8.952-0.216,15.158,7.49,22.076,12.271c5.696,3.936,10.494,8.145,15.857,12.354c6.05,4.749,13.134,10.438,17.336,16.808
		c7.659,11.611,12.839,24.392,17.342,37.484c1.859,5.409,1.916,11.118,3.373,16.581c1.705,6.397,2.701,13.192,3.941,19.737
		c1.751,9.236,1.12,19.985,0.707,29.397c-3.122,0.17-5.983-2.398-8.574-1.841c-1.035,4.702-4.396,1.471-6.1,4.152
		c-0.556,0.875,0.885,4.265-0.269,5.006c-1.438,0.925-2.539-0.839-4.056-1.34c-0.104,1.103-0.316,2.655-0.968,3.724"/>
	<path style="fill:none;stroke:#231815;stroke-linecap:round;stroke-linejoin:round;stroke-miterlimit:10;" d="M55.75,116.723
		c0.355-3.442-0.48-7.074-0.332-10.609c0.142-3.354,1.268-6.542,2.415-9.789c1.444-4.086,2.143-8.496,3.243-12.625
		c1.529-5.743,4.947-10.177,6.008-16.226c0.811-4.622-0.371-9.078,3.586-12.011c4.32-3.201,8.355-6.348,12.334-9.913
		c2.473-2.213,4.354-4.132,5.738-7.073c0.973-2.066,0.414-5.163,1.299-6.845c2.675-5.083,12.555-0.67,16.65-1.219
		c5.985-0.801,7.746-9.295,11.641-13.121c3.843-3.774,7.677-3.752,12.851-3.496c3.267,0.162,4.702,0.336,7.667-1.408
		c2.27-1.335,4.148-3.098,6.332-4.352c1.737-0.997,3.651-2.44,5.62-2.907c2.548-0.604,2.352,0.359,4.657,1.375
		c3.517,1.55,8.119,0.539,12.316,0.55c7.99,0.021,14.643,3.109,22.323,5.343c4.188,1.218,8.771,3.354,12.985,3.99
		c2.502,0.378,5.335-0.535,7.666,0.333"/>
</g>
<g class="hair-3 delay-1 time-3">
	<path style="fill:none;stroke:#231815;stroke-linecap:round;stroke-linejoin:round;stroke-miterlimit:10;" d="M75.75,78.723
		c-0.605,8.012-2.225,17.492-4.6,25.173c-1.252,4.051-2.863,9.367,1.267,12.494"/>
	<path style="fill:none;stroke:#231815;stroke-linecap:round;stroke-linejoin:round;stroke-miterlimit:10;" d="M176.416,78.722
		c-0.029,0.692-0.27,1.573-1.318,2.256c2.617,0.804,5.297,4.771,7.839,6.345c6.507,4.027,13.934,6.808,20.278,10.854
		c-4.547-4.042-10.951-3.5-15.92-6.326c2.754,2.286,5.946,4.003,9.068,5.719c5.834,3.207,11.871,8.512,18.444,10.009
		c2.192,0.499,4.129,0.348,6.429,0.478c5.16,0.292,10.156,3.503,15.097,5.348c3.019,1.128,6.463,4.186,9.751,3.985"/>
	<path style="fill:none;stroke:#231815;stroke-linecap:round;stroke-linejoin:round;stroke-miterlimit:10;" d="M220.75,58.722
		c-0.277-1.193,1.657-0.832,2.957-0.708c-7.65,1.126,4.619,7.267,6.298,8.764c3.311,2.95,3.056,4.19,5.079,7.943"/>
</g>
<g class="mouseAndNose delay-1">
	<path style="fill:none;stroke:#231815;stroke-linecap:round;stroke-linejoin:round;stroke-miterlimit:10;" d="M210.584,180.723
		c4.67,13.157,4.361,11.631,5.791,18.167c0.164,0.75,2.633,1.598,3.186,1.929c3.65,2.19,6.567,6.045,6.018,10.506
		c-0.357,2.896-2.623,6.946-5.91,7.131c-1.061,0.06-0.678-1.13-1.229-1.849c-0.834-1.086-2.501-1.787-3.847-1.805
		c-0.994-0.014-2.519,1.032-3.175,1.753c-3.333,3.667-9.167,4.834-11.667,1.667s-11.5-5.333-12.5-3.5s2.333,3.666,0.5,4.333
		s-10.334,0.167-12.5-3.667s-1.333-10.167,2.667-13"/>
	<path style="fill:none;stroke:#231815;stroke-linecap:round;stroke-linejoin:round;stroke-miterlimit:10;" d="M228.416,247.723
		c-11.516,0-23.031,0-34.547,0c-8.279,0-16.704,0.464-24.903-0.592c-3.979-0.513-8.196-1.632-12.073-3.083
		c-2.632-0.985-5.357-3.125-8.144-3.325"/>
	<path style="fill:none;stroke:#231815;stroke-linecap:round;stroke-linejoin:round;stroke-miterlimit:10;" d="M180.845,260.909
		c8.91-1.507,17.206,0.465,26.1-1.039"/>
</g>
<g class="face-brow delay-1">
	<path style="fill:none;stroke:#231815;stroke-linecap:round;stroke-linejoin:round;stroke-miterlimit:10;" d="M178.75,133.14
		c-2.012,1.353-8.009-3.839-9.975-5.131c0.09,0.904,0.342,1.805,0.729,2.623c-2.021-0.197-3.656-1.968-5.257-2.995
		c0.452,0.589,0.897,1.32,1.524,1.813c-1.963-0.568-3.446-3.062-5.752-2.671c0.186,0.754-0.153,1.532-0.297,2.129
		c-2.086-0.238-3.64-1.547-5.453-2.247c0.201,0.429,0.143,0.69,0.474,1.147c-0.646-0.635-1.577-0.968-2.305-0.684
		c0.482,0.358,0.937,1.195,1.281,1.491c-1.138-0.215-2.255-0.577-3.427-0.45c-0.317,0.79-0.498,1.531-0.575,2.388
		c-2.597-0.398-4.467,3.299-6.218,5.087"/>
	<path style="fill:none;stroke:#231815;stroke-linecap:round;stroke-linejoin:round;stroke-miterlimit:10;" d="M163.584,302.89
		c3.648,1.152,7.771,4.525,10.525,7.184c0.296-2.461-4.502-5.865-3.938-7.049c0.368,1.932-0.025,4.055,0.119,6.027
		c1.104-1.049,1.551-3.234,2.211-4.721c0.706-1.59,1.563-2.9,2.62-4.268c-0.104,1.914-0.548,5.742,0.803,7.201
		c0.396-1.295,0.009-3.568,1.931-3.883c0.943,1.727,1.791,8.688,4.561,8.174"/>
	<path style="fill:none;stroke:#231815;stroke-linecap:round;stroke-linejoin:round;stroke-miterlimit:10;" d="M186.084,302.056
		c0.016,2.92-0.701,8.219,2.048,10.07c2.243-1.801,1.106-9.951,3.601-10.209c0.671,2.68,0.365,5.686,0.355,8.422
		c-0.006,1.422-0.338,3.42,0.291,4.676c2.391-0.664,4.016-5.547,4.998-7.508c0.916-1.83,1.527-4.088,2.68-5.746
		c0.051,1.193-0.736,6.355,0.174,7.018c2.158,1.568,5.05-7.514,6.564-8.449c0.831,3.127,0.107,7.041-0.211,10.227"/>
	<path style="fill:none;stroke:#231815;stroke-linecap:round;stroke-linejoin:round;stroke-miterlimit:10;" d="M210.584,300.39
		c-0.068-0.326-0.018-0.695,0.11-0.975c2.181-0.146,3.066,0.139,4.369,1.938c0.117-0.744,0.085-1.529-0.285-2.146
		c-0.189,2.459-0.109,5.043,0.001,7.5c0.299-2.389,1.048-4.879,0.564-7.295c-0.463-2.318-2.02-4-3.361-5.842
		c0.834,1.029,2.086,0.953,2.768,1.82"/>
	<path style="fill:none;stroke:#231815;stroke-linecap:round;stroke-linejoin:round;stroke-miterlimit:10;" d="M182.25,296.224
		c1.409,0.273,2.027,1.721,3.484,1.85c2.174,0.191,3.066-2.119,4.89-2.758c1.052,0.91,0.058,4.049,1.063,4.537
		c1.458,0.711,3.193-2.541,4.898-2.313c1.662,0.223,0.207,1.459,1.657,2.121c1.733,0.791,4.213-3.244,5.841-3.605"/>
</g>
<g class="body_1_ delay-1">
	<path style="fill:none;stroke:#231815;stroke-linecap:round;stroke-linejoin:round;stroke-miterlimit:10;" d="M186.084,317.39
		c0,0-8.001,16.334-20.334,13.666"/>
	<path style="fill:none;stroke:#231815;stroke-linecap:round;stroke-linejoin:round;stroke-miterlimit:10;" d="M4.75,271.056
		c11-4.666,29.666-8.333,46-18s35-16,35-16s-13.666,6.333-12.333,28.333c1.333,22,20.333,74.667,35.667,97.667
		c15.333,23,41.666,52,41.666,52s29.334-23.666,36.667-46.666s9.667-58.668,9.667-58.668S209.375,306.39,217,295.89
		s13.25-17.375,13.25-17.375s22.5,10.125,32.625,14.25S290.5,311.64,295.25,324.14"/>
</g>
</svg>
