<?xml version="1.0" encoding="utf-8"?>
<!-- Generator: Adobe Illustrator 16.0.0, SVG Export Plug-In . SVG Version: 6.00 Build 0)  -->
<!DOCTYPE svg PUBLIC "-//W3C//DTD SVG 1.1//EN" "http://www.w3.org/Graphics/SVG/1.1/DTD/svg11.dtd">
<svg version="1.1" xmlns="http://www.w3.org/2000/svg" xmlns:xlink="http://www.w3.org/1999/xlink" x="0px" y="0px" width="210px"
	 height="310px" viewBox="0 0 210 310" enable-background="new 0 0 210 310" xml:space="preserve">
<g id="圖層_5">
</g>
<g id="face">
	<polygon fill="#73F28D" points="17.632,37.111 52.132,55.111 196.882,18.361 160.132,3.111 	"/>
</g>
<g id="圖層_3">
	<g>
		<path fill="none" stroke="#231815" stroke-linecap="round" stroke-linejoin="round" stroke-miterlimit="10" d="M199.671,25.01
			l0.305-3.854c-0.256,0.063-0.512,0.127-0.769,0.189c-0.257,0.063-0.513,0.127-0.769,0.19c-0.257,0.063-0.514,0.128-0.77,0.191
			s-0.514,0.128-0.77,0.192c-0.514,0.128-1.027,0.257-1.541,0.386c-0.516,0.129-1.03,0.258-1.545,0.388
			c-0.517,0.13-1.033,0.26-1.551,0.389c-0.518,0.13-1.036,0.26-1.556,0.39c-2.472,0.618-4.958,1.238-7.458,1.863
			c-2.514,0.628-5.042,1.26-7.585,1.895c-2.558,0.64-5.131,1.282-7.718,1.929c-2.604,0.65-5.222,1.304-7.855,1.962
			c-3.337,0.834-6.699,1.673-10.086,2.52c-3.411,0.853-6.848,1.711-10.312,2.576c-3.489,0.871-7.005,1.749-10.546,2.634
			c-3.569,0.892-7.166,1.79-10.789,2.695c-3.121,0.78-6.264,1.564-9.426,2.354c-3.184,0.796-6.39,1.597-9.617,2.402
			c-3.248,0.812-6.52,1.629-9.813,2.451c-3.315,0.828-6.653,1.662-10.014,2.502c-1.422,0.355-2.848,0.711-4.279,1.068
			c-1.434,0.358-2.873,0.718-4.316,1.079c-1.447,0.361-2.898,0.724-4.354,1.088c-1.46,0.364-2.924,0.729-4.392,1.097
			c-1.062,0.265-2.13,0.501-3.202,0.719c-0.354,0.071-0.711,0.132-1.066,0.199c-0.716,0.135-1.432,0.264-2.15,0.378
			c-0.416,0.066-0.833,0.126-1.25,0.186c-0.688,0.099-1.378,0.188-2.067,0.269c-0.411,0.048-0.821,0.095-1.232,0.136
			c-0.965,0.098-1.931,0.188-2.895,0.251c-0.036,0.002-0.071,0.004-0.107,0.007c-1.145,0.073-2.286,0.124-3.447,0.152
			c-1.146,0.027-2.285,0.031-3.418,0.013c-0.022,0-0.045-0.001-0.066-0.001c-1.13-0.02-2.252-0.06-3.365-0.122
			c-0.012-0.001-0.023-0.002-0.035-0.003c-1.106-0.062-2.203-0.146-3.288-0.249c-0.03-0.003-0.062-0.006-0.092-0.009
			c-1.073-0.104-2.134-0.228-3.181-0.369c-0.026-0.004-0.053-0.007-0.078-0.011c-1.047-0.143-2.077-0.304-3.093-0.483
			c-0.036-0.006-0.072-0.013-0.108-0.019c-1.002-0.179-1.986-0.374-2.954-0.585c-0.048-0.011-0.097-0.021-0.145-0.032
			c-0.93-0.205-1.843-0.426-2.737-0.66c-0.092-0.024-0.183-0.048-0.273-0.072c-1.804-0.48-3.527-1.019-5.162-1.606
			c-0.078-0.027-0.158-0.054-0.235-0.082c-0.761-0.277-1.497-0.568-2.218-0.866c-0.17-0.071-0.339-0.143-0.508-0.215
			c-0.713-0.305-1.413-0.615-2.082-0.939c-1.299-0.631-2.457-1.27-3.465-1.914c-1.002-0.642-1.855-1.287-2.552-1.933
			c-0.692-0.643-1.229-1.285-1.601-1.924c-0.369-0.636-0.575-1.267-0.61-1.89l13.526,241.716c0.058,1.016,0.258,2.044,0.593,3.076
			c0.337,1.036,0.81,2.077,1.413,3.116c0.605,1.043,1.341,2.083,2.199,3.114c0.861,1.035,1.847,2.06,2.947,3.067
			c0.414,0.378,0.836,0.747,1.268,1.108c0.163,0.136,0.334,0.265,0.5,0.398c0.14,0.113,0.28,0.226,0.422,0.336
			c0.137,0.107,0.268,0.219,0.405,0.323c0.452,0.344,0.913,0.679,1.382,1.004c0.027,0.019,0.056,0.036,0.082,0.055
			c0.061,0.041,0.123,0.079,0.184,0.12c0.386,0.263,0.773,0.523,1.172,0.771c0.303,0.191,0.609,0.377,0.92,0.561
			c0.311,0.182,0.623,0.36,0.939,0.535c0.316,0.174,0.637,0.345,0.959,0.511c0.113,0.059,0.229,0.114,0.344,0.172
			c0.037,0.018,0.071,0.039,0.107,0.058c0.037,0.019,0.075,0.033,0.112,0.051c0.137,0.068,0.272,0.139,0.411,0.205
			c0.238,0.114,0.478,0.226,0.718,0.335c0.241,0.109,0.483,0.217,0.726,0.321c0.148,0.063,0.299,0.125,0.448,0.187
			c0.032,0.014,0.063,0.027,0.095,0.04c0.064,0.026,0.128,0.054,0.192,0.08c0.246,0.1,0.493,0.197,0.742,0.292
			c0.205,0.078,0.411,0.154,0.617,0.229c0.206,0.074,0.413,0.147,0.622,0.219c0.102,0.035,0.204,0.068,0.306,0.102
			c0.022,0.008,0.045,0.016,0.067,0.022c0.085,0.028,0.169,0.058,0.254,0.085c0.209,0.067,0.42,0.133,0.631,0.197
			c0.184,0.056,0.367,0.11,0.551,0.163c0.185,0.053,0.369,0.104,0.555,0.154c0.185,0.051,0.37,0.1,0.557,0.146
			c0.014,0.004,0.028,0.007,0.043,0.011c0.013,0.003,0.025,0.006,0.038,0.01c0.159,0.04,0.319,0.08,0.479,0.118
			c0.169,0.04,0.34,0.079,0.51,0.118c0.17,0.038,0.342,0.075,0.513,0.11c0.171,0.036,0.343,0.071,0.515,0.104
			c0.173,0.033,0.346,0.065,0.518,0.097c0.045,0.008,0.09,0.016,0.153,0.027c0.015,0.003,0.03,0.005,0.046,0.007
			c0.097,0.018,0.194,0.034,0.291,0.051c0.164,0.027,0.328,0.053,0.492,0.078c0.165,0.025,0.33,0.049,0.494,0.072
			c0.015,0.002,0.029,0.004,0.043,0.006s0.026,0.003,0.039,0.005c0.139,0.019,0.275,0.038,0.414,0.055
			c0.162,0.021,0.323,0.039,0.484,0.058c0.152,0.017,0.306,0.033,0.487,0.051c0.162,0.016,0.325,0.031,0.487,0.045
			c0.163,0.014,0.326,0.026,0.489,0.038c0.131,0.01,0.263,0.018,0.394,0.025c0.01,0.001,0.02,0.002,0.028,0.002
			c0.024,0.002,0.049,0.003,0.073,0.005c0.165,0.01,0.33,0.018,0.496,0.025c0.166,0.007,0.331,0.014,0.497,0.019
			c0.099,0.003,0.197,0.005,0.296,0.007c0.025,0.001,0.051,0.001,0.076,0.002c0.042,0.001,0.084,0.002,0.127,0.003
			c0.174,0.003,0.348,0.005,0.523,0.005c0.174,0.001,0.35,0,0.524-0.002c0.059-0.001,0.116-0.002,0.175-0.003
			c0.027-0.001,0.056-0.001,0.083-0.002c0.089-0.002,0.179-0.003,0.268-0.005c0.175-0.005,0.351-0.011,0.526-0.018
			c0.186-0.009,0.371-0.017,0.558-0.027c0.026-0.002,0.053-0.004,0.079-0.005c0.18-0.011,0.359-0.021,0.539-0.035
			c0.197-0.015,0.393-0.03,0.59-0.048c0.065-0.006,0.132-0.013,0.197-0.02c0.046-0.004,0.092-0.009,0.137-0.013
			c0.086-0.009,0.17-0.017,0.256-0.025c0.246-0.026,0.492-0.055,0.738-0.086c0.092-0.012,0.184-0.025,0.276-0.038
			c0.033-0.004,0.067-0.007,0.101-0.012s0.065-0.011,0.099-0.016c0.088-0.013,0.175-0.023,0.263-0.036
			c0.246-0.037,0.492-0.075,0.738-0.117c0.082-0.014,0.163-0.029,0.244-0.044c0.066-0.012,0.132-0.023,0.197-0.035
			c0.1-0.019,0.199-0.035,0.298-0.054c0.076-0.015,0.152-0.037,0.229-0.052c0.715-0.141,1.429-0.299,2.143-0.484
			c0.018-0.005,0.036-0.008,0.069-0.018c1.881-0.554,3.748-1.155,5.606-1.781c0.878-0.296,1.751-0.604,2.62-0.925
			c2.132-0.789,4.236-1.653,6.315-2.573c5.706-2.523,11.215-5.461,16.694-8.436c5.459-2.964,10.898-5.971,16.5-8.66
			c15.349-7.368,30.73-14.67,46.172-21.845c10.508-4.883,21.015-9.771,31.464-14.776c0.752-16.963,3.371-34.027,5.05-50.936
			c1.775-17.886,3.572-35.77,5.353-53.655c1.821-18.329,3.663-36.656,5.489-54.985c1.459-14.655,2.93-29.31,4.39-43.965
			c0.675-6.778,1.358-13.555,2.03-20.333c0.019-0.189,0.037-0.378,0.056-0.566c-0.257,0.059-0.514,0.116-0.772,0.174
			c-0.258,0.058-0.515,0.116-0.771,0.175c-0.259,0.058-0.517,0.117-0.773,0.175c-0.258,0.059-0.517,0.117-0.773,0.177
			c-0.517,0.117-1.032,0.235-1.549,0.354c-0.519,0.118-1.035,0.236-1.553,0.355c-0.52,0.119-1.038,0.238-1.559,0.357
			c-0.52,0.119-1.041,0.238-1.563,0.357c-2.483,0.566-4.982,1.135-7.495,1.708c-2.525,0.576-5.066,1.155-7.622,1.737
			c-2.57,0.587-5.156,1.176-7.756,1.769c-2.616,0.597-5.248,1.195-7.895,1.799c-3.354,0.766-6.732,1.534-10.136,2.311
			c-3.428,0.782-6.882,1.569-10.362,2.362c-3.507,0.799-7.04,1.604-10.599,2.415c-3.587,0.818-7.201,1.642-10.843,2.472
			c-3.136,0.716-6.294,1.435-9.472,2.159c-3.2,0.73-6.422,1.464-9.665,2.203c-3.265,0.744-6.552,1.493-9.861,2.248
			c-3.332,0.759-6.687,1.523-10.063,2.294c-1.429,0.326-2.861,0.652-4.3,0.979c-1.441,0.329-2.888,0.658-4.338,0.989
			c-1.455,0.332-2.913,0.664-4.376,0.998c-1.468,0.334-2.938,0.669-4.414,1.006c-1.066,0.242-2.14,0.457-3.216,0.652
			c-0.356,0.063-0.714,0.117-1.07,0.177c-0.719,0.12-1.437,0.234-2.158,0.334c-0.417,0.058-0.835,0.108-1.253,0.159"/>
		<path fill="none" stroke="#231815" stroke-linecap="round" stroke-linejoin="round" stroke-miterlimit="10" d="M152.229,5.913
			c0.214-0.047,0.742,0.082,1.426,0.307c0.686,0.226,1.525,0.546,2.362,0.88c0.839,0.335,1.673,0.683,2.339,0.961
			c0.667,0.278,1.164,0.485,1.322,0.536c0.314,0.099,0.664,0.191,1.029,0.281c0.367,0.091,0.749,0.179,1.131,0.269
			s0.763,0.182,1.125,0.28c0.362,0.098,0.707,0.203,1.014,0.318c0.17,0.063,0.307,0.128,0.424,0.192
			c0.117,0.063,0.217,0.128,0.313,0.191s0.188,0.126,0.294,0.188c0.105,0.062,0.224,0.122,0.37,0.181
			c0.193,0.077,0.376,0.134,0.557,0.178c0.18,0.043,0.357,0.075,0.539,0.104c0.182,0.029,0.367,0.055,0.563,0.087
			s0.4,0.071,0.623,0.125c0.391,0.096,0.759,0.201,1.113,0.313c0.354,0.112,0.695,0.229,1.033,0.349
			c0.337,0.119,0.672,0.24,1.012,0.357c0.341,0.117,0.688,0.231,1.051,0.338c0.41,0.12,0.868,0.228,1.34,0.33
			c0.473,0.102,0.959,0.198,1.424,0.297s0.91,0.199,1.3,0.309s0.724,0.229,0.968,0.363c0.198,0.109,0.369,0.216,0.538,0.321
			s0.335,0.209,0.522,0.312c0.189,0.103,0.399,0.204,0.656,0.305c0.258,0.101,0.563,0.2,0.939,0.3
			c0.215,0.058,0.421,0.107,0.619,0.153c0.199,0.046,0.39,0.089,0.574,0.135c0.184,0.045,0.36,0.092,0.531,0.146
			c0.17,0.055,0.334,0.115,0.492,0.189c0.063,0.03,0.105,0.063,0.143,0.099c0.037,0.036,0.07,0.073,0.115,0.112
			s0.102,0.078,0.188,0.117c0.087,0.039,0.203,0.078,0.365,0.114c-0.072,0.073,0.008,0.162,0.181,0.258
			c0.173,0.095,0.439,0.197,0.737,0.298c0.299,0.102,0.63,0.2,0.932,0.288c0.303,0.089,0.577,0.167,0.762,0.225
			c0.43,0.138,0.922,0.236,1.442,0.317c0.521,0.082,1.069,0.146,1.612,0.216c0.543,0.068,1.08,0.141,1.577,0.238
			c0.497,0.097,0.955,0.22,1.339,0.389c0.318,0.14,0.526,0.273,0.688,0.403s0.275,0.256,0.404,0.38
			c0.131,0.124,0.277,0.246,0.504,0.367c0.228,0.122,0.535,0.244,0.987,0.367c0.509,0.139,1.034,0.261,1.565,0.375
			c0.532,0.115,1.07,0.223,1.603,0.332c0.533,0.109,1.062,0.221,1.575,0.344c0.514,0.122,1.012,0.257,1.484,0.412
			c-0.256,0.063-0.512,0.127-0.769,0.189c-0.257,0.063-0.513,0.127-0.769,0.19c-0.257,0.063-0.514,0.128-0.77,0.191
			s-0.514,0.128-0.77,0.192c-0.514,0.128-1.027,0.257-1.541,0.386c-0.516,0.129-1.03,0.258-1.545,0.388
			c-0.517,0.13-1.033,0.26-1.551,0.389c-0.518,0.13-1.036,0.26-1.556,0.39c-2.472,0.618-4.958,1.238-7.458,1.863
			c-2.514,0.628-5.042,1.26-7.585,1.895c-2.558,0.64-5.131,1.282-7.718,1.929c-2.604,0.65-5.222,1.304-7.855,1.962
			c-3.337,0.834-6.699,1.673-10.086,2.52c-3.411,0.853-6.848,1.711-10.312,2.576c-3.489,0.871-7.005,1.749-10.546,2.634
			c-3.569,0.892-7.166,1.79-10.789,2.695c-3.121,0.78-6.264,1.564-9.426,2.354c-3.184,0.796-6.39,1.597-9.617,2.402
			c-3.248,0.812-6.52,1.629-9.813,2.451c-3.315,0.828-6.653,1.662-10.014,2.502c-1.422,0.355-2.848,0.711-4.279,1.068
			c-1.434,0.358-2.873,0.718-4.316,1.079c-1.447,0.361-2.898,0.724-4.354,1.088c-1.46,0.364-2.924,0.729-4.392,1.097
			c-4.566,1.141-9.252,1.837-13.914,2.141c-4.673,0.305-9.294,0.214-13.724-0.211c-4.417-0.425-8.622-1.179-12.485-2.199
			c-3.834-1.014-7.318-2.284-10.334-3.746c-2.981-1.446-5.219-2.941-6.602-4.431c-1.369-1.471-1.902-2.937-1.5-4.344
			C3.985,41.407,5.3,40.071,7.63,38.84c2.307-1.219,5.613-2.336,10.025-3.308L152.229,5.913z"/>
		
			<line fill="none" stroke="#231815" stroke-linecap="round" stroke-linejoin="round" stroke-miterlimit="10" x1="46.666" y1="75.231" x2="49.999" y2="207.898"/>
		<polyline fill="none" stroke="#231815" stroke-linecap="round" stroke-linejoin="round" stroke-miterlimit="10" points="
			18.332,35.397 154.666,2.064 154.666,6.376 		"/>
		<path fill="none" stroke="#231815" stroke-linecap="round" stroke-linejoin="round" stroke-miterlimit="10" d="M15.874,36.356
			c-1.178,0.479-2.66,1.182-3.557,2.063C11.523,39.2,10.42,40.006,9.75,40.9c-0.531,0.709-0.583,1.113-0.665,1.978
			c-0.202,2.125,0.903,3.599,2.807,4.478c0.804,0.371,1.592,0.749,2.387,1.136c1.08,0.525,2.321,0.562,3.358,1.195
			c-0.102,0.126-0.172,0.418-0.263,0.535c2.494,0.675,4.929,1.827,7.501,2.191c2.951,0.418,5.832,1.023,8.775,1.263
			c3.92,0.318,7.653,0.509,11.274,1.263c1.493,0.311,3.006,0.497,4.524,0.615c1.118,0.087,2.014,0.582,3.097,0.816
			c1.094,0.237,2.331,0.274,3.453,0.278"/>
		
			<line fill="none" stroke="#231815" stroke-linecap="round" stroke-linejoin="round" stroke-miterlimit="10" x1="156.999" y1="7.981" x2="81.249" y2="25.981"/>
		
			<line fill="none" stroke="#231815" stroke-linecap="round" stroke-linejoin="round" stroke-miterlimit="10" x1="174.499" y1="13.231" x2="155.249" y2="18.231"/>
		
			<line fill="none" stroke="#231815" stroke-linecap="round" stroke-linejoin="round" stroke-miterlimit="10" x1="164.249" y1="10.231" x2="155.499" y2="12.481"/>
		
			<line fill="none" stroke="#231815" stroke-linecap="round" stroke-linejoin="round" stroke-miterlimit="10" x1="169.874" y1="11.981" x2="161.124" y2="14.231"/>
		<path fill="none" stroke="#231815" stroke-linecap="round" stroke-linejoin="round" stroke-miterlimit="10" d="M85.332,109.898
			c0.157,9.733,19.217,25.813,17.284,5.255c0.849,13.785,12.176-7.855,13.818-9.849c8.48-10.292,10.094,3.132,20.566-0.374
			c8.839-2.959,11.476-14.293,21.224-16.267c6.17-1.25,12.938,0.258,19.107-0.766"/>
		<path fill="none" stroke="#231815" stroke-linecap="round" stroke-linejoin="round" stroke-miterlimit="10" d="M87.999,174.565
			c7.199,1.064,10.117-10.224,15.535-12.013c7.325-2.42,14.982,2.574,21.798-2.654"/>
		<path fill="none" stroke="#231815" stroke-linecap="round" stroke-linejoin="round" stroke-miterlimit="10" d="M97.999,191.231
			c1.921,0.276,3.234-0.475,4-2"/>
		<path fill="none" stroke="#231815" stroke-linecap="round" stroke-linejoin="round" stroke-miterlimit="10" d="M169.332,168.565
			c-4.603,0.997-8.854,4.261-13.333,6"/>
	</g>
</g>
</svg>
