<?xml version="1.0" encoding="utf-8"?>
<!-- Generator: Adobe Illustrator 16.0.0, SVG Export Plug-In . SVG Version: 6.00 Build 0)  -->
<!DOCTYPE svg PUBLIC "-//W3C//DTD SVG 1.1//EN" "http://www.w3.org/Graphics/SVG/1.1/DTD/svg11.dtd">
<svg version="1.1" class="child" xmlns="http://www.w3.org/2000/svg" xmlns:xlink="http://www.w3.org/1999/xlink" x="0px" y="0px"
	 width="340px" height="300px" viewBox="0 0 340 300" style="enable-background:new 0 0 340 300;" xml:space="preserve">
<g class="eyes">
	<path style="fill:none;stroke:#231815;stroke-linecap:round;stroke-linejoin:round;stroke-miterlimit:10;" d="M134.677,75.021
		c0,0,1.257-2.908,5.187-2.594s9.273,4.375,9.273,4.794s-1.101,0.707-1.101,0.707"/>
	<path style="fill:none;stroke:#231815;stroke-linecap:round;stroke-linejoin:round;stroke-miterlimit:10;" d="M117.361,72.637
		c0,0-1.113-2.554-3.824-3.326c-2.624-0.749-6.562-0.131-6.68,0.124c-0.117,0.256,0.629,0.924,0.629,0.924"/>
	<path style="fill:none;stroke:#231815;stroke-linecap:round;stroke-linejoin:round;stroke-miterlimit:10;" d="M137.118,72.811
		c-0.669,0.547-1.105,1.369-1.105,2.302c0,1.649,1.337,2.986,2.986,2.986s2.986-1.337,2.986-2.986c0-1.131-0.636-2.104-1.563-2.61
		c-0.188-0.029-0.376-0.061-0.559-0.075C138.738,72.338,137.839,72.516,137.118,72.811z"/>
	<g>
		<path style="fill:none;stroke:#231815;stroke-linecap:round;stroke-linejoin:round;stroke-miterlimit:10;" d="M113.537,69.311
			c-0.309-0.088-0.637-0.156-0.975-0.21c-0.584,0.609-0.963,1.513-0.963,2.534c0,1.834,1.196,3.32,2.672,3.32
			c1.408,0,2.552-1.361,2.652-3.08C116.377,71.057,115.295,69.811,113.537,69.311z"/>
	</g>
</g>
<g class="eyesbrow">
	<path style="fill:none;stroke:#231815;stroke-linecap:round;stroke-linejoin:round;stroke-miterlimit:10;" d="M135.698,61.552
		c1.317-0.03,2.344,0.933,3.676,0.677c-0.302-0.035-0.605-0.489-0.514-0.78c0.593-0.119,1.269,0.347,1.81,0.565
		c0.326,0.133,0.692,0.213,1.002,0.334c0.133-0.299-0.153-0.459-0.113-0.751c0.442-0.026,0.846,0.068,1.252,0.246
		c0.349,0.153,0.75,0.242,1.079,0.382c0.415,0.176,0.893,0.702,1.317,0.741"/>
	<path style="fill:none;stroke:#231815;stroke-linecap:round;stroke-linejoin:round;stroke-miterlimit:10;" d="M114.848,57.622
		c-1.084,0.231-2.158,0.99-3.299,0.979c0.087-0.322,0.55-0.965,0.873-1.071c-1.034,0.163-2.045,0.603-3.035,1.019
		c0.273-0.316,0.538-0.647,0.784-0.985c-0.658,0.05-1.221,0.705-1.819,0.95"/>
</g>
<g class="face">
	<path style="fill:none;stroke:#231815;stroke-linecap:round;stroke-linejoin:round;stroke-miterlimit:10;" d="M106.045,65.01
		c0.211,2.515,0.184,4.793-0.366,7.15c-0.55,2.358-3.144,8.016-3.064,15.403c0.078,7.387,1.336,10.53,3.222,15.01
		c1.887,4.479,12.023,12.651,15.167,14.538c3.144,1.886,10.138,3.929,17.682,2.672c7.544-1.258,15.717-3.93,19.567-5.895
		c3.851-1.964,13.281-11.787,14.146-14.616l2.593,0.118c0,0,4.559-0.118,7.584-3.025c3.025-2.908,7.897-11.12,8.173-13.085
		c0.274-1.965,1.454-7.662-2.161-9.47c-3.615-1.807-5.736-0.117-7.229,2.357c-1.493,2.476-1.258,2.712-2.908,5.227
		s-3.3,7.701-0.825,8.33c2.476,0.629,4.519-0.157,5.423-4.126c0.903-3.969-1.493-2.947-1.493-2.947"/>
</g>
<g class="hair delay-1">
	<path style="fill:none;stroke:#231815;stroke-linecap:round;stroke-linejoin:round;stroke-miterlimit:10;" d="M106.563,64.717
		c-0.075-4.419,0.098-8.809,0.681-13.192c0.166-1.251,0.361-2.499,0.579-3.742c0.513-2.929,1.128-5.973,2.805-8.489
		c0.46-0.69,1.002-1.328,1.618-1.884c0.893-0.804,1.983-1.359,2.876-2.145c1.681-1.479,3.936-3.407,5.164-5.232
		c-0.248,1.403-1.269,2.86-1.639,4.353c-0.208,0.836-0.469,1.549-0.757,2.299c1.002-0.394,1.938-1.822,2.719-2.614
		c0.967-0.979,1.889-1.753,2.96-2.558c1.838-1.385,4.344-2.352,5.952-3.941c0.394,0.846-0.268,2.62-0.432,3.552
		c-0.163,0.934-0.151,1.923-0.282,2.85c-0.259,1.839-0.529,3.688-0.428,5.564c0.898-0.579,0.974-2.575,2.274-2.703
		c0.036,1.588,0.433,3.131,0.55,4.7c0.086,1.133-0.176,2.851,0.641,3.779c1.143,1.3,1.603-3.585,1.896-4.529
		c0.804-2.594,1.717-4.736,3.939-6.449c1.555-1.197,3.245-2.56,4.914-3.479c0.235,0.981,0.259,2.056,0.965,2.825"/>
	<path style="fill:none;stroke:#231815;stroke-linecap:round;stroke-linejoin:round;stroke-miterlimit:10;" d="M191.696,83.345
		c1.195-0.914,2.429-3.113,3.075-4.509c0.809-1.746,1.182-3.688,1.909-5.446c0.555-1.34,1.313-2.576,1.886-3.933
		c0.739-1.751,0.953-3.665,0.943-5.571c-0.008-1.475,0.438-2.864,0.626-4.319c0.198-1.529,0.377-3.027,0.422-4.595
		c0.152-5.309-0.076-10.669-1.058-15.896c-0.495-2.637-1.182-5.224-2.189-7.712c-0.769-1.896-1.881-3.481-3.124-5.096
		c-1.535-1.994-2.242-4.372-3.962-6.288c-1.876-2.089-4.204-3.776-6.637-5.155c-1.797-1.019-3.264-2.314-4.901-3.543
		c-2.423-1.819-5.683-3.53-8.505-4.632c-4.211-1.644-8.317-3.427-12.883-3.803c-5.06-0.418-10.175,0.086-15.097,1.305
		c-10.36,2.565-21.239,6.714-28.621,14.763c-2.115,2.307-3.958,4.995-5.475,7.731c-1.183,2.133-2.22,4.399-3.05,6.694
		c-0.902,2.49-1.458,5.095-1.82,7.715c-0.881,6.391-0.589,12.891,0.632,19.217c0.276,1.435,1.185,3.408,2.007,4.659"/>
	<path style="fill:none;stroke:#231815;stroke-linecap:round;stroke-linejoin:round;stroke-miterlimit:10;" d="M143.348,33.471
		c0.863,1.307,1.145,3.414,1.543,4.926c0.649,2.463,1.553,4.687,2.686,6.916c0.578,1.14,1.045,5.111,2.567,5.331
		c0.046-1.377,0.212-2.76,0.341-4.109c0.098-1.03-0.242-2.319,0.084-3.25c1.379,2.566,3.24,4.902,4.906,7.262
		c0.927,1.314,3.315,6.427,4.934,6.575c0.096-0.556,0.191-2.954,0.934-3.003c1.307-0.086,1.396,4.33,3.064,4.515
		c0.251,2.38,1.438,4.882,2.186,7.162c0.388,1.184,0.485,2.305,0.641,3.514c0.119,0.922,0.622,1.823,0.634,2.746
		c0.006-0.23-0.038-1.924,0.509-2.146c0.777-0.314,2.58,2.62,2.94,3.309c0.914,1.747,2.128,3.407,2.762,5.207
		c0.261,0.737,0.115,1.119,0.825,1.358c1.578,0.53,2.833-1.204,4.41-0.982"/>
</g>
<g class="mouseAndNose ">
	<path style="fill:none;stroke:#231815;stroke-linecap:round;stroke-linejoin:round;stroke-miterlimit:10;" d="M120.297,77.583
		c0,0-0.629,6.182-2.306,8.173c-1.677,1.99-1.259,4.19-0.42,4.61c0.839,0.419,2.2-0.63,2.829-0.105s1.572,1.152,2.935,1.258
		c1.362,0.104,2.41-0.839,3.563-0.629s1.571,1.781,2.934,1.571c1.362-0.209,2.515-1.362,2.306-3.457
		c-0.21-2.096-1.467-2.515-1.467-2.515"/>
	<path style="fill:none;stroke:#231815;stroke-linecap:round;stroke-linejoin:round;stroke-miterlimit:10;" d="M117.624,103.28
		c0,0,2.2-1.021,4.558-0.393c2.357,0.628,7.466,2.907,7.466,2.907"/>
	<path style="fill:none;stroke:#231815;stroke-linecap:round;stroke-linejoin:round;stroke-miterlimit:10;" d="M118.252,105.088
		c1.26-0.051,2.158,1.107,3.312,1.42c1.385,0.376,2.827-0.186,4.233-0.006"/>
</g>
<g class="airplane time-3 delay-2">
	<path style="fill:none;stroke:#231815;stroke-linecap:round;stroke-linejoin:round;stroke-miterlimit:10;" d="M35.109,146.633
		C6.19,174.295,5.353,224.169,5.353,224.169c63.896,48.971,130.704,69.521,182.841,72.509c15.223,0.871,30.784,0.865,45.991-0.273
		c31.368-2.346,69.576-9.232,89.551-36.232c12.62-17.059,12.983-40.104,7.692-59.894c-11.097-41.502-40.446-60.456-40.446-60.456
		s-16.974-15.717-84.557-4.715S81.003,215.264,81.003,215.264s59.306,24.413,97.864,33.215c19.058,4.35,38.493,6.521,58.006,7.287
		c24.219,0.95,48.886-3.016,70.955-13.268c6.216-2.887,12.286-6.176,17.731-10.365c5.448-4.191,0.418-30.177-5.449-43.588"/>
	<path style="fill:none;stroke:#231815;stroke-linecap:round;stroke-linejoin:round;stroke-miterlimit:10;" d="M13.734,186.03
		c0,0,82.462,64.648,206.521,77.642c60.694,6.356,104.675-16.975,113.477-31.434"/>
</g>
<g class="body delay-2">
	<path style="fill:none;stroke:#231815;stroke-linecap:round;stroke-linejoin:round;stroke-miterlimit:10;" d="M94.049,93.929
		c1.414,2.625-2,5.011-2.558,7.385c-0.66,2.808-0.403,5.346-3.452,6.589c-4.229,1.723-8.84,2.691-13.143,4.261
		c-5.595,2.04-11.07,4.502-15.965,7.928c-9.883,6.918-17.79,17.104-22.262,28.293c-5.701,14.264-7.289,31.088,7.257,40.113
		c5.822,3.612,10.475,12.163,17.563,13.195c4.993,0.727,8.95-3.135,13.228-4.975"/>
	<path style="fill:none;stroke:#231815;stroke-linecap:round;stroke-linejoin:round;stroke-miterlimit:10;" d="M97.559,112.684
		c3.633,0.155,5.3,4.193,6.978,6.819c2.319,3.631,5.737,6.396,9.567,8.307c9.069,4.524,18.854,4.956,28.677,3.249
		c8.844-1.538,18.097-4.348,24.805-10.666c4.73-4.455,7.627-10.538,12.691-14.675c4.486-3.664,10.408-4.007,15.936-4.438
		c6.03-0.47,12.346-1.526,18.301,0.029c13.107,3.424,26.385,10.105,26.385,25.415"/>
	<path style="fill:none;stroke:#231815;stroke-linecap:round;stroke-linejoin:round;stroke-miterlimit:10;" d="M85.404,107.235
		c2.388-0.745,0.402-3.172-0.041-4.018c-1.368-2.604,0.458-2.741,1.156-5.413c1.184-4.528-2.513-7.965-3.672-11.876
		c-1.876-6.329,4.46-9.51,8.943-12.784c2.552-1.865,4.709-2.895,7.652-3.932c1.848-0.651,3.422-2.019,5.24-2.632"/>
	<path style="fill:none;stroke:#231815;stroke-linecap:round;stroke-linejoin:round;stroke-miterlimit:10;" d="M200.242,73.287
		c2.499-2.822,6.474,0.301,8.361,2.265c2.619,2.727,3.955,6.464,4.314,10.177c0.233,2.412,0.854,5.015,0.008,7.377
		c-1.511,4.222-6.144,4.912-10.064,4.909"/>
</g>
</svg>
